<svg width="171" height="18" viewBox="0 0 171 18" fill="none" xmlns="http://www.w3.org/2000/svg">
<g clip-path="url(#clip0_272_3319)">
<path d="M0.135634 12.3799L2.0557 1.92485C2.15742 1.47712 2.39478 1.09393 2.78049 0.77528C3.16196 0.46066 3.59005 0.299316 4.06477 0.299316C4.53949 0.299316 4.904 0.456626 5.16679 0.77528C5.37024 1.0173 5.47197 1.29965 5.48468 1.62233C5.48468 1.71914 5.4762 1.81998 5.45925 1.92485L3.53495 12.2428C3.48409 12.5574 3.45442 12.8438 3.44594 13.11C3.44594 13.2431 3.45442 13.3762 3.47561 13.5093C3.51376 13.8885 3.64939 14.2152 3.87403 14.4855C4.09868 14.7557 4.42928 14.9654 4.86162 15.1107C5.29395 15.2559 5.86191 15.3325 6.56975 15.3325C7.29454 15.3325 7.90489 15.2599 8.39656 15.1107C8.88824 14.9614 9.29938 14.7517 9.62998 14.4774C9.95635 14.2031 10.2107 13.8764 10.3844 13.4932C10.5625 13.11 10.6896 12.6824 10.7702 12.2145L12.6945 1.93292C12.7665 1.48116 12.9742 1.09797 13.326 0.783347C13.6736 0.468727 14.0593 0.307384 14.4789 0.307384C14.8985 0.307384 15.2291 0.46066 15.4707 0.763179C15.6614 0.993094 15.7547 1.26334 15.7547 1.57796C15.7547 1.67074 15.7462 1.76754 15.725 1.86838L13.8007 12.15C13.7499 12.4727 13.7287 12.7712 13.7287 13.0455C13.7287 13.1826 13.7329 13.3197 13.7414 13.4569C13.7795 13.8481 13.9152 14.1829 14.1398 14.4612C14.3644 14.7396 14.695 14.9533 15.1274 15.1066C15.5597 15.2599 16.1234 15.3325 16.8186 15.3325C17.5434 15.3325 18.1537 15.2599 18.6454 15.1107C19.137 14.9614 19.5482 14.7517 19.8703 14.4774C20.1924 14.2031 20.4468 13.8764 20.6333 13.4932C20.8197 13.11 20.9511 12.6824 21.0317 12.2145L22.9517 1.93292C23.0365 1.47712 23.2696 1.09393 23.6511 0.77528C24.0326 0.46066 24.4607 0.299316 24.9354 0.299316C25.3974 0.299316 25.7704 0.456626 26.0544 0.77528C26.2663 1.02536 26.3765 1.31175 26.385 1.63847C26.385 1.73527 26.3765 1.83208 26.3553 1.92485L24.4056 12.3799C24.075 14.0861 23.2484 15.4454 21.926 16.4579C20.6078 17.4703 18.7386 17.9745 16.3184 17.9745C15.1189 17.9745 14.1144 17.8414 13.2963 17.5792C12.4825 17.317 11.8425 16.9379 11.3847 16.4498C10.7362 16.9379 9.96483 17.313 9.06202 17.5792C8.15921 17.8414 7.10805 17.9745 5.9043 17.9745C3.5731 17.9745 1.94549 17.4663 1.02573 16.4498C0.343322 15.7036 0 14.7678 0 13.6465C0 13.2431 0.046624 12.8196 0.135634 12.3799Z" fill="#3EA7DC"/>
<path d="M25.9949 16.3489L27.9108 5.86564C28.2414 4.1796 29.0679 2.82835 30.3818 1.81995C31.6958 0.807519 33.5607 0.30332 35.981 0.30332C38.3588 0.295253 40.0245 0.787351 40.9824 1.78365C41.7072 2.53793 42.0675 3.48179 42.0548 4.61926C42.0548 4.98632 42.0209 5.37758 41.9488 5.789L39.9821 16.3409C39.9016 16.7926 39.6727 17.1758 39.2913 17.4945C38.9098 17.8131 38.4859 17.9704 38.0155 17.9704C37.5535 17.9704 37.1847 17.8131 36.905 17.4945C36.7057 17.2646 36.5998 16.9983 36.5913 16.6878C36.5913 16.5748 36.6083 16.4578 36.6379 16.3409L37.617 10.9923H30.3776L29.3731 16.3489C29.2925 16.8007 29.0594 17.1839 28.6779 17.4985C28.2922 17.8131 27.8641 17.9704 27.3894 17.9704C26.9147 17.9704 26.5375 17.8131 26.2535 17.4945C26.05 17.2646 25.9525 17.0024 25.9525 16.7039C25.9483 16.595 25.9653 16.474 25.9949 16.3489ZM30.8735 8.33823H38.1045L38.5198 6.07942C38.5707 5.7648 38.5961 5.47035 38.5961 5.20413C38.5961 5.07102 38.5919 4.93388 38.5792 4.80077C38.5368 4.41758 38.4054 4.08683 38.1808 3.80851C37.9561 3.53019 37.6255 3.32045 37.1932 3.17524C36.7608 3.03003 36.1929 2.96146 35.4893 2.96146C34.7645 2.96146 34.1584 3.03406 33.6625 3.17927C33.1708 3.32448 32.7597 3.53423 32.4333 3.81254C32.1069 4.09086 31.8568 4.41758 31.6788 4.79674C31.5008 5.1759 31.3737 5.60346 31.2931 6.08345L30.8735 8.33823Z" fill="#3EA7DC"/>
<path d="M43.4238 2.04184C43.4238 1.80386 43.4789 1.57798 43.5891 1.3642C43.6697 1.19076 43.8053 1.01328 44.0045 0.823699C44.1995 0.638154 44.475 0.488911 44.8268 0.384038C45.0387 0.327567 45.2167 0.299332 45.3693 0.299332C45.4795 0.299332 45.5813 0.315467 45.6703 0.343702C45.8822 0.412273 46.0517 0.517146 46.1831 0.662355C46.323 0.815632 46.4247 1.01328 46.4841 1.25126L48.1329 14.4371L54.478 1.30773C54.6009 1.06975 54.7704 0.860001 54.9908 0.69059C55.1731 0.537314 55.3977 0.424373 55.669 0.343702C55.7792 0.307399 55.9064 0.287231 56.0462 0.287231C56.237 0.287231 56.4531 0.3195 56.6947 0.388071C57.0084 0.484877 57.2245 0.626053 57.3432 0.811598C57.4661 0.997143 57.5467 1.18269 57.5848 1.3642C57.606 1.4489 57.6145 1.54168 57.6145 1.63848C57.6145 1.77159 57.5933 1.90873 57.5551 2.04184L50.1038 16.3772C49.9215 16.6918 49.7054 16.9621 49.4553 17.1839C49.2222 17.3775 48.9551 17.555 48.6457 17.7244C48.3363 17.8938 47.9676 17.9745 47.5352 17.9745C47.1029 17.9745 46.7638 17.8938 46.518 17.7365C46.2721 17.5792 46.0729 17.3937 45.9246 17.1839C45.7635 16.9621 45.6533 16.6959 45.594 16.3772L43.4238 2.04184Z" fill="#3EA7DC"/>
<path d="M57.3476 12.4364L58.5556 5.86564C58.8862 4.1796 59.7127 2.82835 61.0351 1.81592C62.3533 0.803489 64.2225 0.29929 66.6427 0.29929C69.0206 0.291223 70.6863 0.791388 71.6442 1.80785C72.369 2.57423 72.725 3.53826 72.7166 4.69994C72.7166 5.07506 72.6827 5.47035 72.6106 5.89388L71.9028 9.66125C71.8434 10.0364 71.6527 10.351 71.3306 10.6091C71.0084 10.8673 70.6524 10.9964 70.2582 10.9964H61.0563L60.7893 12.388C60.7384 12.6703 60.713 12.9446 60.713 13.2068C60.713 13.3358 60.7172 13.4569 60.7257 13.5779C60.7681 13.9409 60.8953 14.2555 61.1114 14.5137C61.3276 14.7718 61.6582 14.9735 62.1032 15.1147C62.5483 15.2558 63.129 15.3284 63.8538 15.3284H69.4444C69.8174 15.3284 70.1226 15.4535 70.3684 15.7036C70.5591 15.8972 70.6482 16.1352 70.6397 16.4215C70.6397 16.4982 70.6354 16.5748 70.6227 16.6515C70.5422 17.0266 70.3387 17.3412 70.0166 17.5953C69.6945 17.8494 69.3512 17.9745 68.9909 17.9745H63.3239C60.9249 17.9745 59.2549 17.4743 58.3055 16.478C57.5892 15.7318 57.2332 14.7758 57.2332 13.6182C57.2416 13.2431 57.2755 12.8518 57.3476 12.4364ZM61.5438 8.33823H68.7705L69.1774 6.07942C69.2282 5.7648 69.2537 5.47035 69.2537 5.20413C69.2537 5.07103 69.2494 4.93388 69.2367 4.80078C69.1943 4.41758 69.0629 4.08683 68.8383 3.80851C68.6137 3.53019 68.283 3.32045 67.8507 3.17524C67.4184 3.03003 66.8504 2.96146 66.1511 2.96146C65.4263 2.96146 64.8202 3.03406 64.3285 3.17927C63.8368 3.32448 63.4257 3.53423 63.0993 3.81255C62.7729 4.09086 62.5229 4.42162 62.3448 4.80078C62.1711 5.17993 62.0397 5.60749 61.9591 6.08749L61.5438 8.33823Z" fill="#3EA7DC"/>
<path d="M81.3546 16.3489L83.3044 5.86564C83.618 4.1796 84.4361 2.82835 85.767 1.81592C87.0979 0.803488 88.9671 0.29929 91.3746 0.29929C93.7015 0.29929 95.3715 0.811555 96.393 1.83609C97.7536 0.811555 99.6228 0.29929 102.001 0.29929C104.395 0.291222 106.074 0.795421 107.032 1.82399C107.748 2.57827 108.1 3.53019 108.091 4.67977C108.091 5.07506 108.049 5.49859 107.968 5.94228L106.057 16.3489C105.955 16.8007 105.714 17.1839 105.328 17.4985C104.942 17.8131 104.514 17.9745 104.039 17.9745C103.565 17.9745 103.196 17.8172 102.933 17.4985C102.73 17.2605 102.624 16.9782 102.615 16.6515C102.615 16.5547 102.628 16.4538 102.649 16.3489L104.565 6.08346C104.616 5.76884 104.641 5.47438 104.641 5.20817C104.641 5.07506 104.637 4.93792 104.624 4.80481C104.582 4.42162 104.45 4.09086 104.226 3.81255C103.997 3.53423 103.671 3.32448 103.238 3.17927C102.806 3.03406 102.238 2.96549 101.53 2.96549C100.805 2.96549 100.191 3.0381 99.6863 3.17927C99.182 3.32448 98.7708 3.53423 98.4572 3.81255C98.1393 4.09086 97.8892 4.41758 97.7027 4.79674C97.5162 5.1759 97.3848 5.60346 97.3 6.08346L95.4139 16.3489C95.3334 16.8007 95.096 17.1839 94.7061 17.4985C94.3119 17.8131 93.8795 17.9745 93.4091 17.9745C92.9343 17.9745 92.5613 17.8172 92.2901 17.4985C92.0782 17.2605 91.9722 16.9782 91.9722 16.6515C91.9722 16.5547 91.9807 16.4538 92.0019 16.3489L93.9177 6.08346C93.9685 5.76884 93.994 5.47438 93.994 5.20817C93.994 5.07506 93.9897 4.93792 93.9813 4.80481C93.9389 4.42162 93.8075 4.09086 93.5786 3.81255C93.354 3.53423 93.0233 3.32448 92.591 3.17927C92.1587 3.03406 91.595 2.96549 90.8998 2.96549C90.175 2.96549 89.5647 3.0381 89.073 3.18331C88.5813 3.32851 88.166 3.53826 87.8354 3.81658C87.5048 4.0949 87.2504 4.42162 87.0724 4.80077C86.8944 5.17993 86.7673 5.60749 86.6867 6.08749L84.7624 16.353C84.6819 16.8047 84.4488 17.1879 84.0673 17.5025C83.6858 17.8172 83.2535 17.9785 82.7788 17.9785C82.3125 17.9785 81.9395 17.8212 81.6598 17.5025C81.4479 17.2525 81.3377 16.9661 81.325 16.6394C81.325 16.5506 81.3334 16.4538 81.3546 16.3489Z" fill="#3EA7DC"/>
<path d="M108.676 12.4364L109.872 5.86564C110.202 4.1796 111.029 2.82835 112.351 1.81592C113.669 0.803489 115.539 0.29929 117.959 0.29929C120.337 0.291223 122.002 0.791388 122.96 1.80785C123.677 2.55407 124.029 3.49793 124.016 4.63943C124.016 5.03069 123.978 5.45018 123.897 5.88984L122.689 12.4041V12.4323C122.375 14.1022 121.557 15.4414 120.227 16.4498C118.896 17.4622 117.039 17.9664 114.653 17.9664C112.254 17.9664 110.58 17.4662 109.622 16.4699C108.905 15.7318 108.549 14.8041 108.549 13.6787C108.541 13.2955 108.587 12.8801 108.676 12.4364ZM112.05 13.6222C112.089 13.9772 112.22 14.2797 112.436 14.5338C112.652 14.7879 112.983 14.9816 113.424 15.1187C113.869 15.2558 114.449 15.3244 115.178 15.3244C116.577 15.3244 117.582 15.038 118.192 14.4693C118.802 13.9006 119.188 13.1543 119.349 12.2347L120.498 6.07942C120.549 5.7648 120.574 5.47035 120.574 5.20413C120.574 5.07103 120.57 4.93388 120.557 4.80078C120.519 4.41758 120.383 4.08683 120.159 3.80851C119.934 3.53019 119.603 3.32045 119.175 3.17524C118.743 3.03003 118.179 2.96146 117.476 2.96146C116.755 2.96146 116.149 3.03406 115.657 3.17927C115.166 3.32448 114.759 3.53423 114.432 3.81255C114.106 4.09086 113.856 4.42162 113.682 4.80078C113.508 5.17993 113.381 5.61153 113.301 6.09152L112.114 12.4686C112.063 12.7429 112.033 13.0091 112.025 13.2673C112.029 13.3883 112.038 13.5093 112.05 13.6222Z" fill="#3EA7DC"/>
<path d="M124.05 16.3489L125.999 5.86564C126.313 4.1796 127.131 2.82835 128.453 1.81592C129.78 0.803488 131.641 0.29929 134.036 0.29929C136.435 0.291222 138.109 0.795421 139.067 1.82399C139.783 2.57827 140.135 3.53019 140.122 4.67977C140.122 5.07506 140.084 5.49859 140.004 5.94228L138.092 16.3489C137.99 16.8007 137.749 17.1839 137.367 17.4985C136.981 17.8131 136.553 17.9745 136.079 17.9745C135.595 17.9745 135.218 17.8172 134.955 17.4985C134.752 17.2605 134.654 16.9782 134.654 16.6515C134.654 16.5547 134.667 16.4538 134.688 16.3489L136.604 6.08346C136.655 5.76884 136.681 5.47438 136.681 5.20817C136.681 5.07506 136.676 4.93792 136.664 4.80481C136.621 4.42162 136.49 4.09086 136.261 3.81255C136.032 3.53423 135.697 3.32448 135.252 3.17927C134.807 3.03406 134.231 2.96549 133.523 2.96549C132.798 2.96549 132.183 3.0381 131.692 3.17927C131.196 3.32448 130.785 3.53423 130.458 3.81255C130.132 4.09086 129.878 4.41758 129.7 4.79674C129.522 5.1759 129.394 5.60346 129.314 6.08346L127.419 16.3489C127.318 16.8007 127.08 17.1839 126.699 17.5025C126.317 17.8212 125.893 17.9785 125.423 17.9785C124.952 17.9785 124.584 17.8212 124.312 17.5025C124.113 17.2646 124.011 16.9903 124.011 16.6837C124.02 16.5748 124.033 16.4619 124.05 16.3489Z" fill="#3EA7DC"/>
<path d="M140.588 12.4364L141.796 5.86564C142.127 4.1796 142.953 2.82835 144.276 1.81592C145.594 0.803489 147.463 0.29929 149.884 0.29929C152.261 0.291223 153.927 0.791388 154.885 1.80785C155.61 2.57423 155.966 3.53826 155.957 4.69994C155.957 5.07506 155.923 5.47035 155.851 5.89388L155.144 9.66125C155.084 10.0364 154.893 10.351 154.571 10.6091C154.249 10.8673 153.893 10.9964 153.499 10.9964H144.297L144.034 12.388C143.983 12.6703 143.958 12.9446 143.958 13.2068C143.958 13.3358 143.962 13.4569 143.975 13.5779C144.013 13.9409 144.145 14.2555 144.361 14.5137C144.577 14.7718 144.907 14.9735 145.353 15.1147C145.798 15.2558 146.378 15.3284 147.103 15.3284H152.694C153.067 15.3284 153.372 15.4535 153.613 15.7036C153.804 15.8972 153.897 16.1352 153.885 16.4215C153.885 16.4982 153.88 16.5748 153.872 16.6515C153.791 17.0266 153.588 17.3412 153.266 17.5953C152.944 17.8494 152.6 17.9745 152.24 17.9745H146.573C144.174 17.9745 142.504 17.4743 141.555 16.478C140.838 15.7318 140.482 14.7758 140.482 13.6182C140.482 13.2431 140.516 12.8518 140.588 12.4364ZM144.789 8.33823H152.016L152.422 6.07942C152.473 5.7648 152.499 5.47035 152.499 5.20413C152.499 5.07103 152.494 4.93388 152.482 4.80078C152.439 4.41758 152.308 4.08683 152.083 3.80851C151.859 3.53019 151.528 3.32045 151.096 3.17524C150.663 3.03003 150.095 2.96146 149.396 2.96146C148.671 2.96146 148.065 3.03406 147.574 3.17927C147.082 3.32448 146.671 3.53423 146.349 3.81255C146.022 4.09086 145.772 4.42162 145.594 4.80078C145.42 5.17993 145.293 5.60749 145.208 6.08749L144.789 8.33823Z" fill="#3EA7DC"/>
<path d="M157.441 2.21525C157.432 2.11037 157.428 2.00953 157.428 1.91273C157.428 1.73121 157.449 1.54164 157.488 1.35206C157.56 1.06567 157.78 0.815589 158.153 0.605843C158.484 0.424331 158.78 0.331559 159.043 0.331559C159.064 0.331559 159.077 0.335592 159.09 0.347693C159.369 0.35576 159.594 0.424331 159.755 0.549373C159.959 0.682481 160.124 0.863993 160.255 1.09391L163.163 6.54329C163.939 5.6438 164.651 4.81691 165.295 4.0707C165.566 3.75608 165.837 3.44146 166.105 3.12684C166.372 2.81625 166.613 2.5339 166.829 2.27978C167.045 2.02567 167.228 1.81189 167.38 1.63441C167.533 1.45693 167.626 1.33996 167.669 1.28349C167.791 1.15038 167.953 0.997101 168.152 0.831724C168.355 0.662313 168.576 0.533238 168.817 0.436432C169.05 0.359794 169.288 0.319458 169.529 0.319458C169.559 0.319458 169.584 0.319458 169.606 0.319458C169.89 0.327525 170.174 0.444499 170.466 0.662313C170.758 0.884161 170.928 1.11408 170.979 1.35206C171 1.44886 171.008 1.5376 171.008 1.62634C171.008 1.77155 170.983 1.90062 170.932 2.01357C170.852 2.25155 170.695 2.47743 170.466 2.69121L164.362 9.48781L163.125 16.0868C163.065 16.4417 162.955 16.7563 162.794 17.0226C162.654 17.2646 162.442 17.4824 162.163 17.68C161.883 17.8777 161.518 17.9745 161.069 17.9745C160.62 17.9745 160.298 17.8857 160.103 17.7083C159.908 17.5308 159.781 17.3372 159.721 17.1274C159.641 16.8693 159.641 16.5708 159.721 16.236L161.031 9.49587L157.801 3.21961C157.619 2.88482 157.5 2.55003 157.441 2.21525Z" fill="#3EA7DC"/>
</g>
<defs>
<clipPath id="clip0_272_3319">
<rect width="171" height="17.6873" fill="white" transform="translate(0 0.287231)"/>
</clipPath>
</defs>
</svg>
