<svg width="171" height="19" viewBox="0 0 171 19" fill="none" xmlns="http://www.w3.org/2000/svg">
<g clip-path="url(#clip0_95_697)">
<path d="M0.135634 12.9902L2.0557 1.75918C2.15742 1.27822 2.39478 0.866592 2.78049 0.524289C3.16196 0.186319 3.59005 0.0130005 4.06477 0.0130005C4.53949 0.0130005 4.904 0.181986 5.16679 0.524289C5.37024 0.784266 5.47197 1.08757 5.48468 1.43421C5.48468 1.5382 5.4762 1.64652 5.45925 1.75918L3.53495 12.8429C3.48409 13.1808 3.45442 13.4885 3.44594 13.7745C3.44594 13.9174 3.45442 14.0604 3.47561 14.2034C3.51376 14.6107 3.64939 14.9617 3.87403 15.252C4.09868 15.5423 4.42928 15.7676 4.86162 15.9236C5.29395 16.0796 5.86191 16.1619 6.56975 16.1619C7.29454 16.1619 7.90489 16.0839 8.39656 15.9236C8.88824 15.7633 9.29938 15.538 9.62998 15.2433C9.95635 14.9487 10.2107 14.5977 10.3844 14.1861C10.5625 13.7745 10.6896 13.3152 10.7702 12.8125L12.6945 1.76785C12.7665 1.28256 12.9742 0.870925 13.326 0.532955C13.6736 0.194985 14.0593 0.0216664 14.4789 0.0216664C14.8985 0.0216664 15.2291 0.186319 15.4707 0.51129C15.6614 0.758269 15.7547 1.04858 15.7547 1.38655C15.7547 1.4862 15.7462 1.5902 15.725 1.69852L13.8007 12.7432C13.7499 13.0899 13.7287 13.4105 13.7287 13.7051C13.7287 13.8525 13.7329 13.9998 13.7414 14.1471C13.7795 14.5674 13.9152 14.927 14.1398 15.226C14.3644 15.525 14.695 15.7546 15.1274 15.9193C15.5597 16.0839 16.1234 16.1619 16.8186 16.1619C17.5434 16.1619 18.1537 16.0839 18.6454 15.9236C19.137 15.7633 19.5482 15.538 19.8703 15.2433C20.1924 14.9487 20.4468 14.5977 20.6333 14.1861C20.8197 13.7745 20.9511 13.3152 21.0317 12.8125L22.9517 1.76785C23.0365 1.27822 23.2696 0.866592 23.6511 0.524289C24.0326 0.186319 24.4607 0.0130005 24.9354 0.0130005C25.3974 0.0130005 25.7704 0.181986 26.0544 0.524289C26.2663 0.792932 26.3765 1.10057 26.385 1.45154C26.385 1.55553 26.3765 1.65952 26.3553 1.75918L24.4056 12.9902C24.075 14.823 23.2484 16.2832 21.926 17.3708C20.6078 18.4584 18.7386 19 16.3184 19C15.1189 19 14.1144 18.857 13.2963 18.5754C12.4825 18.2937 11.8425 17.8864 11.3847 17.3621C10.7362 17.8864 9.96483 18.2894 9.06202 18.5754C8.15921 18.857 7.10805 19 5.9043 19C3.5731 19 1.94549 18.4541 1.02573 17.3621C0.343322 16.5606 0 15.5553 0 14.3507C0 13.9174 0.046624 13.4625 0.135634 12.9902Z" fill="white"/>
<path d="M25.995 17.2538L27.9108 5.99246C28.2414 4.18129 29.0679 2.72975 30.3819 1.64651C31.6958 0.558936 33.5608 0.0173167 35.981 0.0173167C38.3588 0.00865083 40.0246 0.537271 40.9825 1.60751C41.7073 2.41777 42.0676 3.43168 42.0549 4.65358C42.0549 5.04788 42.021 5.46817 41.9489 5.91013L39.9822 17.2451C39.9017 17.7304 39.6728 18.1421 39.2913 18.4844C38.9099 18.8267 38.486 18.9957 38.0155 18.9957C37.5535 18.9957 37.1848 18.8267 36.905 18.4844C36.7058 18.2374 36.5998 17.9514 36.5914 17.6178C36.5914 17.4965 36.6083 17.3708 36.638 17.2451L37.6171 11.4996H30.3777L29.3731 17.2538C29.2926 17.7391 29.0595 18.1507 28.678 18.4887C28.2923 18.8267 27.8642 18.9957 27.3895 18.9957C26.9148 18.9957 26.5375 18.8267 26.2535 18.4844C26.0501 18.2374 25.9526 17.9557 25.9526 17.6351C25.9484 17.5181 25.9653 17.3881 25.995 17.2538ZM30.8736 8.64856H38.1045L38.5199 6.22211C38.5708 5.88414 38.5962 5.56783 38.5962 5.28186C38.5962 5.13887 38.592 4.99155 38.5792 4.84856C38.5369 4.43693 38.4055 4.08163 38.1808 3.78265C37.9562 3.48368 37.6256 3.25837 37.1932 3.10238C36.7609 2.94639 36.1929 2.87273 35.4893 2.87273C34.7646 2.87273 34.1584 2.95073 33.6625 3.10671C33.1709 3.2627 32.7597 3.48801 32.4334 3.78699C32.107 4.08596 31.8569 4.43693 31.6789 4.84423C31.5009 5.25153 31.3737 5.71082 31.2932 6.22644L30.8736 8.64856Z" fill="white"/>
<path d="M43.424 1.88483C43.424 1.62919 43.4791 1.38655 43.5893 1.1569C43.6698 0.970582 43.8054 0.779932 44.0046 0.576283C44.1996 0.376967 44.4751 0.216648 44.8269 0.103991C45.0388 0.0433295 45.2169 0.0129989 45.3694 0.0129989C45.4796 0.0129989 45.5814 0.0303307 45.6704 0.0606613C45.8823 0.134322 46.0519 0.246978 46.1832 0.402965C46.3231 0.567617 46.4248 0.779932 46.4842 1.03558L48.133 15.2L54.4781 1.09624C54.601 0.840593 54.7705 0.615279 54.991 0.433295C55.1732 0.268643 55.3979 0.14732 55.6691 0.0606613C55.7793 0.0216648 55.9065 0 56.0463 0C56.2371 0 56.4532 0.0346636 56.6948 0.108324C57.0085 0.212315 57.2247 0.363968 57.3433 0.563284C57.4663 0.7626 57.5468 0.961916 57.5849 1.1569C57.6061 1.24789 57.6146 1.34755 57.6146 1.45154C57.6146 1.59453 57.5934 1.74185 57.5553 1.88483L50.1039 17.2842C49.9216 17.6221 49.7055 17.9124 49.4554 18.1507C49.2223 18.3587 48.9553 18.5494 48.6458 18.7314C48.3364 18.9133 47.9677 19 47.5353 19C47.103 19 46.7639 18.9133 46.5181 18.7444C46.2723 18.5754 46.073 18.3761 45.9247 18.1507C45.7636 17.9124 45.6534 17.6265 45.5941 17.2842L43.424 1.88483Z" fill="white"/>
<path d="M57.3476 13.0508L58.5556 5.99246C58.8862 4.18128 59.7127 2.72974 61.0351 1.64217C62.3533 0.554601 64.2225 0.0129816 66.6427 0.0129816C69.0206 0.00431567 70.6863 0.541602 71.6442 1.63351C72.369 2.45677 72.725 3.49234 72.7166 4.74023C72.7166 5.1432 72.6827 5.56783 72.6106 6.02279L71.9028 10.0698C71.8434 10.4727 71.6527 10.8107 71.3306 11.088C71.0084 11.3653 70.6524 11.504 70.2582 11.504H61.0563L60.7893 12.9988C60.7384 13.3021 60.713 13.5968 60.713 13.8784C60.713 14.0171 60.7172 14.1471 60.7257 14.2771C60.7681 14.667 60.8953 15.005 61.1114 15.2823C61.3276 15.5596 61.6582 15.7763 62.1032 15.9279C62.5483 16.0796 63.129 16.1576 63.8538 16.1576H69.4444C69.8174 16.1576 70.1226 16.2919 70.3684 16.5605C70.5591 16.7685 70.6482 17.0242 70.6397 17.3318C70.6397 17.4141 70.6354 17.4964 70.6227 17.5788C70.5422 17.9817 70.3387 18.3197 70.0166 18.5927C69.6945 18.8657 69.3512 19 68.9909 19H63.3239C60.9249 19 59.2549 18.4627 58.3055 17.3925C57.5892 16.5909 57.2332 15.564 57.2332 14.3204C57.2416 13.9174 57.2755 13.4971 57.3476 13.0508ZM61.5438 8.64856H68.7705L69.1774 6.2221C69.2282 5.88413 69.2537 5.56783 69.2537 5.28185C69.2537 5.13886 69.2494 4.99154 69.2367 4.84856C69.1943 4.43693 69.0629 4.08162 68.8383 3.78265C68.6137 3.48368 68.283 3.25836 67.8507 3.10238C67.4184 2.94639 66.8504 2.87273 66.1511 2.87273C65.4263 2.87273 64.8202 2.95072 64.3285 3.10671C63.8368 3.2627 63.4257 3.48801 63.0993 3.78698C62.7729 4.08596 62.5229 4.44126 62.3448 4.84856C62.1711 5.25586 62.0397 5.71515 61.9591 6.23077L61.5438 8.64856Z" fill="white"/>
<path d="M81.3547 17.2538L83.3044 5.99246C83.6181 4.18128 84.4361 2.72974 85.767 1.64217C87.0979 0.5546 88.9671 0.0129808 91.3746 0.0129808C93.7016 0.0129808 95.3716 0.563266 96.3931 1.66384C97.7536 0.563266 99.6228 0.0129808 102.001 0.0129808C104.395 0.00431486 106.074 0.545934 107.032 1.65084C107.748 2.4611 108.1 3.48368 108.091 4.71857C108.091 5.1432 108.049 5.59816 107.969 6.07478L106.057 17.2538C105.955 17.7391 105.714 18.1507 105.328 18.4887C104.942 18.8267 104.514 19 104.039 19C103.565 19 103.196 18.831 102.933 18.4887C102.73 18.233 102.624 17.9297 102.615 17.5788C102.615 17.4748 102.628 17.3665 102.649 17.2538L104.565 6.22644C104.616 5.88847 104.641 5.57216 104.641 5.28618C104.641 5.1432 104.637 4.99588 104.624 4.85289C104.582 4.44126 104.451 4.08596 104.226 3.78698C103.997 3.48801 103.671 3.2627 103.238 3.10671C102.806 2.95072 102.238 2.87706 101.53 2.87706C100.805 2.87706 100.191 2.95506 99.6864 3.10671C99.182 3.2627 98.7709 3.48801 98.4572 3.78698C98.1393 4.08596 97.8893 4.43693 97.7028 4.84422C97.5163 5.25152 97.3849 5.71081 97.3001 6.22644L95.4139 17.2538C95.3334 17.7391 95.0961 18.1507 94.7061 18.4887C94.3119 18.8267 93.8796 19 93.4091 19C92.9344 19 92.5614 18.831 92.2901 18.4887C92.0782 18.233 91.9722 17.9297 91.9722 17.5788C91.9722 17.4748 91.9807 17.3665 92.0019 17.2538L93.9177 6.22644C93.9686 5.88847 93.994 5.57216 93.994 5.28618C93.994 5.1432 93.9898 4.99588 93.9813 4.85289C93.9389 4.44126 93.8075 4.08596 93.5787 3.78698C93.354 3.48801 93.0234 3.2627 92.5911 3.10671C92.1587 2.95072 91.595 2.87706 90.8999 2.87706C90.1751 2.87706 89.5647 2.95506 89.0731 3.11104C88.5814 3.26703 88.166 3.49234 87.8354 3.79132C87.5048 4.09029 87.2505 4.44126 87.0725 4.84856C86.8945 5.25585 86.7673 5.71515 86.6868 6.23077L84.7625 17.2581C84.6819 17.7434 84.4488 18.1551 84.0674 18.493C83.6859 18.831 83.2536 19.0043 82.7788 19.0043C82.3126 19.0043 81.9396 18.8353 81.6599 18.493C81.4479 18.2244 81.3377 17.9167 81.325 17.5658C81.325 17.4705 81.3335 17.3665 81.3547 17.2538Z" fill="white"/>
<path d="M108.676 13.0508L109.872 5.99246C110.202 4.18128 111.029 2.72974 112.351 1.64217C113.669 0.554601 115.539 0.0129816 117.959 0.0129816C120.337 0.00431567 122.002 0.541602 122.96 1.63351C123.677 2.4351 124.028 3.44901 124.016 4.67524C124.016 5.09554 123.978 5.54616 123.897 6.01846L122.689 13.0162V13.0465C122.375 14.8403 121.557 16.2789 120.226 17.3621C118.895 18.4497 117.039 18.9913 114.653 18.9913C112.254 18.9913 110.579 18.454 109.622 17.3838C108.905 16.5909 108.549 15.5943 108.549 14.3854C108.541 13.9738 108.587 13.5275 108.676 13.0508ZM112.05 14.3247C112.088 14.706 112.22 15.031 112.436 15.304C112.652 15.577 112.983 15.7849 113.424 15.9323C113.869 16.0796 114.449 16.1532 115.178 16.1532C116.577 16.1532 117.582 15.8456 118.192 15.2346C118.802 14.6237 119.188 13.8221 119.349 12.8342L120.498 6.2221C120.549 5.88413 120.574 5.56783 120.574 5.28185C120.574 5.13886 120.57 4.99154 120.557 4.84856C120.519 4.43693 120.383 4.08162 120.159 3.78265C119.934 3.48368 119.603 3.25836 119.175 3.10238C118.743 2.94639 118.179 2.87273 117.476 2.87273C116.755 2.87273 116.149 2.95072 115.657 3.10671C115.166 3.2627 114.759 3.48801 114.432 3.78698C114.106 4.08596 113.856 4.44126 113.682 4.84856C113.508 5.25586 113.381 5.71948 113.301 6.2351L112.114 13.0855C112.063 13.3801 112.033 13.6661 112.025 13.9434C112.029 14.0734 112.038 14.2034 112.05 14.3247Z" fill="white"/>
<path d="M124.05 17.2538L125.999 5.99246C126.313 4.18128 127.131 2.72974 128.453 1.64217C129.78 0.5546 131.641 0.0129808 134.036 0.0129808C136.435 0.00431486 138.109 0.545934 139.067 1.65084C139.783 2.4611 140.135 3.48368 140.122 4.71857C140.122 5.1432 140.084 5.59816 140.004 6.07478L138.092 17.2538C137.99 17.7391 137.749 18.1507 137.367 18.4887C136.981 18.8267 136.553 19 136.079 19C135.595 19 135.218 18.831 134.955 18.4887C134.752 18.233 134.654 17.9297 134.654 17.5788C134.654 17.4748 134.667 17.3665 134.688 17.2538L136.604 6.22644C136.655 5.88847 136.681 5.57216 136.681 5.28618C136.681 5.1432 136.676 4.99588 136.664 4.85289C136.621 4.44126 136.49 4.08596 136.261 3.78698C136.032 3.48801 135.697 3.2627 135.252 3.10671C134.807 2.95072 134.231 2.87706 133.523 2.87706C132.798 2.87706 132.183 2.95506 131.692 3.10671C131.196 3.2627 130.785 3.48801 130.458 3.78698C130.132 4.08596 129.878 4.43693 129.7 4.84422C129.522 5.25152 129.394 5.71081 129.314 6.22644L127.419 17.2538C127.318 17.7391 127.08 18.1507 126.699 18.493C126.317 18.8353 125.893 19.0043 125.423 19.0043C124.952 19.0043 124.584 18.8353 124.312 18.493C124.113 18.2374 124.011 17.9427 124.011 17.6134C124.02 17.4964 124.033 17.3751 124.05 17.2538Z" fill="white"/>
<path d="M140.588 13.0508L141.796 5.99246C142.127 4.18128 142.953 2.72974 144.276 1.64217C145.594 0.554601 147.463 0.0129816 149.884 0.0129816C152.261 0.00431567 153.927 0.541602 154.885 1.63351C155.61 2.45677 155.966 3.49234 155.957 4.74023C155.957 5.1432 155.923 5.56783 155.851 6.02279L155.144 10.0698C155.084 10.4727 154.893 10.8107 154.571 11.088C154.249 11.3653 153.893 11.504 153.499 11.504H144.297L144.034 12.9988C143.983 13.3021 143.958 13.5968 143.958 13.8784C143.958 14.0171 143.962 14.1471 143.975 14.2771C144.013 14.667 144.145 15.005 144.361 15.2823C144.577 15.5596 144.907 15.7763 145.353 15.9279C145.798 16.0796 146.378 16.1576 147.103 16.1576H152.694C153.067 16.1576 153.372 16.2919 153.613 16.5605C153.804 16.7685 153.897 17.0242 153.885 17.3318C153.885 17.4141 153.88 17.4964 153.872 17.5788C153.791 17.9817 153.588 18.3197 153.266 18.5927C152.944 18.8657 152.6 19 152.24 19H146.573C144.174 19 142.504 18.4627 141.555 17.3925C140.838 16.5909 140.482 15.564 140.482 14.3204C140.482 13.9174 140.516 13.4971 140.588 13.0508ZM144.789 8.64856H152.016L152.422 6.2221C152.473 5.88413 152.499 5.56783 152.499 5.28185C152.499 5.13886 152.494 4.99154 152.482 4.84856C152.439 4.43693 152.308 4.08162 152.083 3.78265C151.859 3.48368 151.528 3.25836 151.096 3.10238C150.663 2.94639 150.095 2.87273 149.396 2.87273C148.671 2.87273 148.065 2.95072 147.574 3.10671C147.082 3.2627 146.671 3.48801 146.349 3.78698C146.022 4.08596 145.772 4.44126 145.594 4.84856C145.42 5.25586 145.293 5.71515 145.208 6.23077L144.789 8.64856Z" fill="white"/>
<path d="M157.441 2.07116C157.432 1.9585 157.428 1.85018 157.428 1.74618C157.428 1.5512 157.449 1.34755 157.487 1.1439C157.56 0.836264 157.78 0.567621 158.153 0.342308C158.484 0.147325 158.78 0.0476668 159.043 0.0476668C159.064 0.0476668 159.077 0.0519998 159.09 0.0649986C159.369 0.0736646 159.594 0.147325 159.755 0.281646C159.959 0.424634 160.124 0.619617 160.255 0.866595L163.163 6.72042C163.939 5.75417 164.651 4.86591 165.295 4.06431C165.566 3.72634 165.837 3.38837 166.104 3.0504C166.371 2.71677 166.613 2.41346 166.829 2.14048C167.045 1.86751 167.228 1.63786 167.38 1.44721C167.533 1.25656 167.626 1.13091 167.668 1.07024C167.791 0.927256 167.952 0.762604 168.152 0.584953C168.355 0.402969 168.576 0.264315 168.817 0.160324C169.05 0.0779975 169.288 0.034668 169.529 0.034668C169.559 0.034668 169.584 0.034668 169.605 0.034668C169.889 0.0433339 170.173 0.16899 170.466 0.402969C170.758 0.641281 170.928 0.88826 170.979 1.1439C171 1.2479 171.008 1.34322 171.008 1.43854C171.008 1.59453 170.983 1.73319 170.932 1.85451C170.852 2.11015 170.695 2.3528 170.466 2.58244L164.362 9.88347L163.125 16.9722C163.065 17.3535 162.955 17.6915 162.794 17.9774C162.654 18.2374 162.442 18.4714 162.163 18.6837C161.883 18.896 161.518 19 161.069 19C160.62 19 160.298 18.9047 160.103 18.714C159.908 18.5234 159.781 18.3154 159.721 18.0901C159.641 17.8128 159.641 17.4921 159.721 17.1325L161.031 9.89214L157.801 3.15006C157.619 2.79043 157.5 2.43079 157.441 2.07116Z" fill="white"/>
</g>
<defs>
<clipPath id="clip0_95_697">
<rect width="171" height="19" fill="white"/>
</clipPath>
</defs>
</svg>
